<svg xmlns="http://www.w3.org/2000/svg" width="533.182" height="630.782" viewBox="0 0 533.182 630.782"><g transform="translate(-229.083 -61.571)"><g transform="translate(368.487 61.571)"><g transform="translate(14.749 15.025)"><circle cx="14.975" cy="14.975" r="14.975" fill="#02dc8c"/></g><g transform="translate(17.186 17.461)"><circle cx="12.539" cy="12.539" r="12.539" fill="#99f0d0"/></g><g transform="translate(12.179 12.454)"><path d="M827.661,144.4a17.546,17.546,0,1,1,17.546-17.546A17.566,17.566,0,0,1,827.661,144.4Zm0-34.57a17.024,17.024,0,1,0,17.024,17.024A17.043,17.043,0,0,0,827.661,109.831Z" transform="translate(-810.115 -109.309)" fill="#02dc8c"/></g><g transform="translate(29.464)"><rect width="0.522" height="8.342" fill="#02dc8c"/></g><g transform="translate(29.464 51.45)"><rect width="0.522" height="8.275" fill="#02dc8c"/></g><g transform="translate(44.854 9.525)"><g transform="translate(0 0)"><rect width="7.038" height="0.522" transform="translate(0 4.977) rotate(-45)" fill="#02dc8c"/></g></g><g transform="translate(9.444 44.983)"><g transform="translate(0 0)"><rect width="6.97" height="0.522" transform="translate(0 4.929) rotate(-45)" fill="#02dc8c"/></g></g><g transform="translate(51.382 29.739)"><rect width="8.342" height="0.522" fill="#02dc8c"/></g><g transform="translate(0 29.739)"><rect width="8.275" height="0.522" fill="#02dc8c"/></g><g transform="translate(44.854 45.13)"><g transform="translate(0 0)"><rect width="0.522" height="7.038" transform="matrix(0.707, -0.707, 0.707, 0.707, 0, 0.369)" fill="#02dc8c"/></g></g><g transform="translate(9.444 9.72)"><g transform="translate(0 0)"><rect width="0.522" height="6.97" transform="translate(0 0.369) rotate(-45)" fill="#02dc8c"/></g></g></g><g transform="translate(229.083 71.052)"><g transform="translate(56.454 442.454)"><path d="M517.145,1865.554l14.112-71.668-85.78,85.78Z" transform="translate(-445.477 -1793.885)" fill="#99f0d0"/></g><g transform="translate(7.574 81.235)"><path d="M339.031,672.1A181.887,181.887,0,0,1,647.9,541.875L657.128,495l48.744-9.6a261.956,261.956,0,0,0-184.955-76.1c-145.143,0-262.8,117.662-262.8,262.8a261.822,261.822,0,0,0,67.3,175.631L382.753,790.4A181.157,181.157,0,0,1,339.031,672.1Z" transform="translate(-258.115 -409.298)" fill="#99f0d0"/></g><g transform="translate(23.89 99.278)"><g transform="translate(3.087)"><path d="M408.43,898.419a243.342,243.342,0,0,1,330.015-357.65l-.349.388A242.821,242.821,0,0,0,408.789,898.041Z" transform="translate(-332.489 -478.459)" fill="#02dc8c"/></g><g transform="translate(23.902 20.905)"><path d="M492.436,952.73a219.876,219.876,0,0,1-55.281-68.591,222.8,222.8,0,0,1,334.073-279l-.32.412A222.26,222.26,0,0,0,422.123,717.643a223.583,223.583,0,0,0,15.5,166.255,219.362,219.362,0,0,0,55.15,68.43Z" transform="translate(-412.272 -558.591)" fill="#02dc8c"/></g><g transform="translate(45.236 42.325)"><path d="M557.886,988.1A200.633,200.633,0,0,1,826.849,690.38l-.344.392A200.111,200.111,0,0,0,558.242,987.718Z" transform="translate(-494.049 -640.696)" fill="#02dc8c"/></g><g transform="translate(50.267 388.248)"><g transform="translate(0.783 0.78)"><circle cx="3.276" cy="3.276" r="3.276" fill="#99f0d0"/></g><g transform="translate(0 0)"><path d="M517.388,1974.77a4.059,4.059,0,1,1,2.761-7.038h0a4.059,4.059,0,0,1-2.6,7.035C517.5,1974.769,517.442,1974.77,517.388,1974.77Zm0-6.551a2.492,2.492,0,1,0,1.693.662h0A2.484,2.484,0,0,0,517.393,1968.219Z" transform="translate(-513.333 -1966.654)" fill="#02dc8c"/></g></g><g transform="translate(93.255 404.188)"><g transform="translate(0.783 0.783)"><circle cx="3.276" cy="3.276" r="3.276" fill="#99f0d0"/></g><path d="M682.166,2035.869a4.058,4.058,0,1,1,2.585-7.189h0a4.057,4.057,0,0,1-2.585,7.189Zm.008-6.551c-.081,0-.162,0-.244.011a2.494,2.494,0,1,0,1.825.558h0A2.474,2.474,0,0,0,682.174,2029.318Z" transform="translate(-678.111 -2027.753)" fill="#02dc8c"/></g><g transform="translate(67.735 338.315)"><g transform="translate(0.783 0.781)"><circle cx="3.276" cy="3.276" r="3.276" fill="#99f0d0"/></g><g transform="translate(0 0)"><path d="M584.344,1783.37a4.059,4.059,0,1,1,2.729-7.067h0a4.059,4.059,0,0,1-2.524,7.062C584.481,1783.368,584.412,1783.37,584.344,1783.37Zm.006-6.551a2.492,2.492,0,1,0,1.672.644h0A2.484,2.484,0,0,0,584.35,1776.819Z" transform="translate(-580.29 -1775.254)" fill="#02dc8c"/></g></g><g transform="translate(30.102 305.69)"><g transform="translate(0.781 0.783)"><circle cx="3.276" cy="3.276" r="3.276" fill="#99f0d0"/></g><path d="M440.093,1658.314a4.058,4.058,0,1,1,2.585-7.189h0a4.057,4.057,0,0,1-2.585,7.189Zm.008-6.551q-.122,0-.244.012a2.494,2.494,0,1,0,1.825.558h0A2.473,2.473,0,0,0,440.1,1651.764Z" transform="translate(-436.039 -1650.199)" fill="#02dc8c"/></g><g transform="translate(50.118 179.625)"><g transform="translate(0.783 0.781)"><circle cx="3.276" cy="3.276" r="3.276" fill="#99f0d0"/></g><path d="M516.82,1175.092a4.058,4.058,0,1,1,2.727-7.065h0a4.057,4.057,0,0,1-2.727,7.065Zm0-6.549a2.492,2.492,0,1,0,1.673.644A2.487,2.487,0,0,0,516.823,1168.544Z" transform="translate(-512.763 -1166.979)" fill="#02dc8c"/></g><g transform="translate(0 256.922)"><g transform="translate(0.781 0.783)"><circle cx="3.276" cy="3.276" r="3.276" fill="#99f0d0"/></g><path d="M324.71,1471.385a4.058,4.058,0,1,1,2.758-7.036h0a4.057,4.057,0,0,1-2.758,7.036Zm0-6.55-.1,0a2.493,2.493,0,1,0,1.79.662h0A2.475,2.475,0,0,0,324.714,1464.835Z" transform="translate(-320.655 -1463.269)" fill="#02dc8c"/></g><g transform="translate(1.56 271.341)"><g transform="translate(0.783 0.783)"><circle cx="3.276" cy="3.276" r="3.276" fill="#99f0d0"/></g><path d="M330.691,1526.654a4.058,4.058,0,1,1,2.758-7.036h0a4.057,4.057,0,0,1-2.758,7.036Zm0-6.55-.1,0a2.494,2.494,0,1,0,1.79.662h0A2.476,2.476,0,0,0,330.7,1520.1Z" transform="translate(-326.634 -1518.538)" fill="#02dc8c"/></g><g transform="translate(112.2 59.462)"><g transform="translate(0.783 0.781)"><circle cx="3.276" cy="3.276" r="3.276" fill="#99f0d0"/></g><path d="M754.785,714.5a4.056,4.056,0,1,1,3.136-1.476A4.042,4.042,0,0,1,754.785,714.5Zm.006-6.55a2.492,2.492,0,1,0,1.584.568A2.49,2.49,0,0,0,754.791,707.948Z" transform="translate(-750.73 -706.383)" fill="#02dc8c"/></g><g transform="translate(154.999 12.694)"><g transform="translate(0.783 0.783)"><circle cx="3.276" cy="3.276" r="3.276" fill="#99f0d0"/></g><path d="M918.84,535.233A4.058,4.058,0,1,1,921.6,528.2h0a4.057,4.057,0,0,1-2.758,7.036Zm0-6.551-.1,0a2.494,2.494,0,1,0,1.79.662h0A2.477,2.477,0,0,0,918.844,528.682Z" transform="translate(-914.783 -527.117)" fill="#02dc8c"/></g><g transform="translate(170.082 7.035)"><g transform="translate(0.781 0.782)"><circle cx="3.276" cy="3.276" r="3.276" fill="#99f0d0"/></g><path d="M976.651,513.54a4.058,4.058,0,1,1,2.758-7.036h0a4.057,4.057,0,0,1-2.758,7.036Zm0-6.55-.1,0a2.494,2.494,0,1,0,1.79.662h0A2.476,2.476,0,0,0,976.655,506.99Z" transform="translate(-972.596 -505.425)" fill="#02dc8c"/></g><g transform="translate(231.096 39.096)"><g transform="translate(0.783 0.781)"><circle cx="3.276" cy="3.276" r="3.276" fill="#99f0d0"/></g><path d="M1210.526,636.432a4.058,4.058,0,1,1,2.726-7.065h0a4.057,4.057,0,0,1-2.727,7.065Zm0-6.549a2.491,2.491,0,1,0,1.672.644h0A2.485,2.485,0,0,0,1210.529,629.883Z" transform="translate(-1206.469 -628.319)" fill="#02dc8c"/></g><g transform="translate(340.719 40.449)"><g transform="translate(0.781 0.783)"><circle cx="3.276" cy="3.276" r="3.276" fill="#99f0d0"/></g><path d="M1630.717,641.621a4.057,4.057,0,1,1,3.136-1.476A4.041,4.041,0,0,1,1630.717,641.621Zm.008-6.551c-.081,0-.162,0-.244.012a2.494,2.494,0,1,0,1.825.558h0A2.474,2.474,0,0,0,1630.725,635.071Z" transform="translate(-1626.664 -633.506)" fill="#02dc8c"/></g><g transform="translate(313.732 29.091)"><g transform="translate(0.783 0.781)"><circle cx="3.276" cy="3.276" r="3.276" fill="#99f0d0"/></g><path d="M1527.278,598.08a4.056,4.056,0,1,1,3.136-1.476A4.042,4.042,0,0,1,1527.278,598.08Zm.006-6.549a2.491,2.491,0,1,0,1.583.568A2.489,2.489,0,0,0,1527.284,591.531Z" transform="translate(-1523.223 -589.966)" fill="#02dc8c"/></g><g transform="translate(310.622 6.207)"><g transform="translate(0.783 0.78)"><circle cx="3.276" cy="3.276" r="3.276" fill="#99f0d0"/></g><path d="M1515.357,510.366a4.059,4.059,0,1,1,2.761-7.038h0a4.059,4.059,0,0,1-2.6,7.035Q1515.437,510.366,1515.357,510.366Zm0-6.551a2.492,2.492,0,1,0,1.693.662A2.488,2.488,0,0,0,1515.362,503.815Z" transform="translate(-1511.302 -502.251)" fill="#02dc8c"/></g><g transform="translate(397.495 52.113)"><g transform="translate(0.781 0.782)"><circle cx="3.276" cy="3.276" r="3.276" fill="#99f0d0"/></g><path d="M1848.347,686.33a4.059,4.059,0,1,1,2.76-7.038h0a4.059,4.059,0,0,1-2.6,7.035Zm.007-6.552-.1,0a2.494,2.494,0,1,0,1.79.662h0A2.475,2.475,0,0,0,1848.353,679.777Z" transform="translate(-1844.294 -678.213)" fill="#02dc8c"/></g><g transform="translate(348.608 69.104)"><g transform="translate(0.783 0.781)"><circle cx="3.276" cy="3.276" r="3.276" fill="#99f0d0"/></g><path d="M1660.958,751.459a4.059,4.059,0,1,1,2.729-7.067h0a4.059,4.059,0,0,1-2.524,7.062C1661.094,751.458,1661.026,751.459,1660.958,751.459Zm.008-6.552c-.042,0-.084,0-.126,0a2.493,2.493,0,1,0,.126,0Z" transform="translate(-1656.904 -743.344)" fill="#02dc8c"/></g><g transform="translate(5.335 143.502)"><g transform="translate(0.914 0.911)"><path d="M359.014,1033.013a3.118,3.118,0,0,0-.579.893,245.659,245.659,0,0,0-13.751,42.362,3.131,3.131,0,0,0,6.106,1.385,239.391,239.391,0,0,1,13.4-41.28,3.131,3.131,0,0,0-5.176-3.36Z" transform="translate(-344.606 -1032.008)" fill="#99f0d0"/></g><path d="M345.157,1078.425a4.072,4.072,0,0,1-.9-.1,4.043,4.043,0,0,1-3.049-4.838,246.556,246.556,0,0,1,13.8-42.519,4.023,4.023,0,0,1,.748-1.154h0a4.044,4.044,0,0,1,6.685,4.34,238.507,238.507,0,0,0-13.348,41.122,4.047,4.047,0,0,1-3.935,3.151Zm13.568-48.083a2.22,2.22,0,0,0-1.63.71h0a2.207,2.207,0,0,0-.41.633,244.752,244.752,0,0,0-13.7,42.2,2.218,2.218,0,1,0,4.325.981,240.331,240.331,0,0,1,13.45-41.437,2.216,2.216,0,0,0-2.036-3.091Z" transform="translate(-341.103 -1028.517)" fill="#02dc8c"/></g></g><g transform="translate(119.807 75.775)"><g transform="translate(0 0.257)"><path d="M688.315,425.957l36.6-36.6,66.8,79.344-59.924-12.213Z" transform="translate(-688.315 -389.355)" fill="#02dc8c"/></g><g transform="translate(43.851 26.153)"><path d="M856.4,520.8l32.185-32.185,48.8,48.805-43.784-2.583Z" transform="translate(-856.402 -488.615)" fill="#006837"/></g><g transform="translate(42.911)"><path d="M854.907,392.28a4.032,4.032,0,0,1,8.061,0,6.142,6.142,0,1,1-8.061,0Z" transform="translate(-852.796 -388.369)" fill="#99f0d0"/><g transform="translate(5.88 6.217)"><path d="M875.858,422.4h-.522V415.34l3.14-3.14.369.369-2.987,2.987Z" transform="translate(-875.336 -412.2)" fill="#1c1c1c"/></g><g transform="translate(4.277 10.32)"><g transform="translate(0 0)"><rect width="0.522" height="2.403" transform="matrix(0.707, -0.707, 0.707, 0.707, 0, 0.369)" fill="#1c1c1c"/></g></g><g transform="translate(9.364 12.087)"><path d="M888.977,436.5l-.288-.436a5.944,5.944,0,0,0,1.461-1.368l.415.316A6.467,6.467,0,0,1,888.977,436.5Z" transform="translate(-888.689 -434.698)" fill="#1c1c1c"/></g><g transform="translate(8.154 0.401)"><path d="M887.9,400.619l-.477-.211a5.8,5.8,0,0,0,.493-2.145,5.862,5.862,0,0,0-2.018-4.65l-.086-.075,0-.114a3.77,3.77,0,0,0-1.757-3.077l.279-.441a4.291,4.291,0,0,1,1.995,3.388,6.378,6.378,0,0,1,2.112,4.987A6.312,6.312,0,0,1,887.9,400.619Z" transform="translate(-884.051 -389.907)" fill="#1c1c1c"/></g></g><g transform="translate(81.697 24.762)"><path d="M1003.578,487.2a4.032,4.032,0,0,1,8.061,0,6.142,6.142,0,1,1-8.061,0Z" transform="translate(-1001.467 -483.286)" fill="#02dc8c"/><g transform="translate(5.881 6.217)"><path d="M1024.53,517.316h-.522v-7.059l3.14-3.14.369.369-2.987,2.987Z" transform="translate(-1024.008 -507.117)" fill="#1c1c1c"/></g><g transform="translate(4.277 10.32)"><g transform="translate(0 0)"><rect width="0.522" height="2.403" transform="matrix(0.707, -0.707, 0.707, 0.707, 0, 0.369)" fill="#1c1c1c"/></g></g><g transform="translate(9.364 12.087)"><path d="M1037.647,531.42l-.287-.436a5.934,5.934,0,0,0,1.461-1.368l.416.316A6.462,6.462,0,0,1,1037.647,531.42Z" transform="translate(-1037.36 -529.616)" fill="#1c1c1c"/></g><g transform="translate(8.154 0.401)"><path d="M1036.571,495.536l-.477-.211a5.788,5.788,0,0,0,.494-2.145,5.86,5.86,0,0,0-2.018-4.65l-.086-.075,0-.114a3.771,3.771,0,0,0-1.757-3.077l.279-.441a4.293,4.293,0,0,1,1.995,3.388,6.379,6.379,0,0,1,2.112,4.987A6.311,6.311,0,0,1,1036.571,495.536Z" transform="translate(-1032.723 -484.824)" fill="#1c1c1c"/></g></g><g transform="translate(29.731 11.461)"><path d="M804.389,436.213a4.032,4.032,0,0,1,8.061,0,6.142,6.142,0,1,1-8.061,0Z" transform="translate(-802.278 -432.302)" fill="#99f0d0"/><g transform="translate(5.881 6.217)"><path d="M825.341,466.332h-.522v-7.06l3.14-3.14.369.369-2.987,2.987Z" transform="translate(-824.819 -456.133)" fill="#1c1c1c"/></g><g transform="translate(4.277 10.32)"><g transform="translate(0 0)"><rect width="0.522" height="2.402" transform="translate(0 0.369) rotate(-45)" fill="#1c1c1c"/></g></g><g transform="translate(9.364 12.087)"><path d="M838.458,480.435l-.287-.436a5.938,5.938,0,0,0,1.461-1.368l.416.316A6.471,6.471,0,0,1,838.458,480.435Z" transform="translate(-838.171 -478.632)" fill="#1c1c1c"/></g><g transform="translate(8.154 0.402)"><path d="M837.382,444.553l-.477-.211a5.788,5.788,0,0,0,.493-2.145,5.861,5.861,0,0,0-2.017-4.65l-.086-.075,0-.114a3.77,3.77,0,0,0-1.757-3.076l.279-.441a4.291,4.291,0,0,1,1.995,3.388,6.38,6.38,0,0,1,2.112,4.988A6.31,6.31,0,0,1,837.382,444.553Z" transform="translate(-833.534 -433.841)" fill="#1c1c1c"/></g></g></g><g transform="translate(149.273 140.527)"><path d="M801.26,651.814l14.61-9.182v-6.064H801.26Z" transform="translate(-801.26 -636.568)" fill="#006837"/></g><g transform="translate(122.509 124.956)"><path d="M698.673,601.529l14.61-10.9V576.884h-14.61Z" transform="translate(-698.673 -576.884)" fill="#6f69ed"/></g><g transform="translate(397.927 158.797)"><path d="M1768.492,720.712,1754.38,792.38l85.78-85.78Z" transform="translate(-1754.38 -706.6)" fill="#0f05e2"/></g><g transform="translate(174.57 156.299)"><path d="M898.226,706.592l14.61-7.267v-2.3h-14.61Z" transform="translate(-898.226 -697.025)" fill="#0f05e2"/></g><g transform="translate(84.94 166.727)"><path d="M934.078,737l-57.3,57.3A181.889,181.889,0,0,1,613.3,1044.707l-9.071,46.065-49.56,9.76A261.964,261.964,0,0,0,740.1,1177.114c145.143,0,262.805-117.662,262.805-262.805A261.833,261.833,0,0,0,934.078,737Z" transform="translate(-554.665 -736.998)" fill="#0f05e2"/></g><g transform="translate(108.567 167.729)"><path d="M806.988,1161.384a242.516,242.516,0,0,1-161.756-61.742l.348-.389A242.82,242.82,0,0,0,973.634,741.217l.358-.38a243.265,243.265,0,0,1-154.836,420.247Q813.06,1161.383,806.988,1161.384Z" transform="translate(-645.232 -740.837)" fill="#080372"/><g transform="translate(26.168 5.004)"><path d="M880.758,1154.657a221.37,221.37,0,0,1-135.222-46.071l.318-.413a222.26,222.26,0,0,0,348.39-113.316,223.582,223.582,0,0,0-16.078-166.2,219.359,219.359,0,0,0-55.39-68.236l.332-.4a219.87,219.87,0,0,1,55.52,68.4A222.841,222.841,0,0,1,906.453,1153.18,225.383,225.383,0,0,1,880.758,1154.657Z" transform="translate(-745.536 -760.018)" fill="#080372"/></g><g transform="translate(30.903 30.336)"><path d="M895.116,1205a199.945,199.945,0,0,1-131.428-49.223l.342-.394A200.111,200.111,0,0,0,1031.252,857.5l.354-.383a200.57,200.57,0,0,1-124.1,347.507Q901.3,1205,895.116,1205Z" transform="translate(-763.688 -857.117)" fill="#080372"/></g><g transform="translate(349.501 23.51)"><g transform="translate(0.783 0.783)"><circle cx="3.276" cy="3.276" r="3.276" fill="#0f05e2"/></g><path d="M1988.961,839.068a4.043,4.043,0,0,1-2.745-1.068h0a4.063,4.063,0,1,1,2.744,1.068Zm0-6.551-.108,0a2.494,2.494,0,0,0-1.582,4.327h0a2.493,2.493,0,1,0,1.69-4.33Z" transform="translate(-1984.904 -830.953)" fill="#080372"/></g><g transform="translate(306.456 7.721)"><g transform="translate(0.783 0.781)"><circle cx="3.276" cy="3.276" r="3.276" fill="#0f05e2"/></g><path d="M1823.965,778.544a4.04,4.04,0,0,1-2.566-.915h0a4.064,4.064,0,1,1,2.566.915Zm-1.575-2.127a2.493,2.493,0,1,0-.351-3.509,2.5,2.5,0,0,0,.351,3.509Z" transform="translate(-1819.91 -770.43)" fill="#080372"/></g><g transform="translate(332.207 73.504)"><g transform="translate(0.783 0.783)"><circle cx="3.276" cy="3.276" r="3.276" fill="#0f05e2"/></g><g transform="translate(0)"><path d="M1922.675,1030.7a4.043,4.043,0,0,1-2.712-1.039h0a4.063,4.063,0,1,1,2.712,1.039Zm-1.666-2.2a2.494,2.494,0,1,0-.822-1.722,2.5,2.5,0,0,0,.822,1.722Z" transform="translate(-1918.618 -1022.585)" fill="#080372"/></g></g><g transform="translate(369.958 105.995)"><g transform="translate(0.781 0.783)"><circle cx="3.276" cy="3.276" r="3.276" fill="#0f05e2"/></g><g transform="translate(0)"><path d="M2067.373,1155.244a4.041,4.041,0,0,1-2.566-.916h0a4.063,4.063,0,1,1,2.566.916Zm-1.575-2.127a2.494,2.494,0,1,0-.351-3.509,2.5,2.5,0,0,0,.351,3.509Z" transform="translate(-2063.319 -1147.127)" fill="#080372"/></g></g><g transform="translate(350.38 232.13)"><g transform="translate(0.783 0.784)"><circle cx="3.276" cy="3.276" r="3.276" fill="#0f05e2"/></g><path d="M1992.329,1638.736a4.071,4.071,0,1,1,.22-.006C1992.476,1638.734,1992.4,1638.736,1992.329,1638.736Zm.008-6.553c-.045,0-.09,0-.135,0a2.493,2.493,0,0,0-1.536,4.344h0a2.494,2.494,0,1,0,1.671-4.348Z" transform="translate(-1988.276 -1630.617)" fill="#080372"/></g><g transform="translate(399.294 202.137)"><g transform="translate(0.781 0.781)"><circle cx="3.276" cy="3.276" r="3.276" fill="#0f05e2"/></g><path d="M2179.824,1523.761a4.043,4.043,0,0,1-2.745-1.068h0a4.064,4.064,0,1,1,2.745,1.068Zm-1.686-2.221a2.494,2.494,0,1,0-.8-1.731,2.5,2.5,0,0,0,.8,1.731Z" transform="translate(-2175.769 -1515.647)" fill="#080372"/></g><g transform="translate(397.773 133.222)"><g transform="translate(0.783 0.781)"><circle cx="3.276" cy="3.276" r="3.276" fill="#0f05e2"/></g><path d="M2174,1259.6a4.043,4.043,0,0,1-2.745-1.068h0A4.064,4.064,0,1,1,2174,1259.6Zm0-6.55-.108,0a2.493,2.493,0,0,0-1.582,4.327h0a2.493,2.493,0,1,0,1.69-4.329Z" transform="translate(-2169.939 -1251.49)" fill="#080372"/></g><g transform="translate(288.721 352.513)"><g transform="translate(0.781 0.781)"><circle cx="3.276" cy="3.276" r="3.276" fill="#0f05e2"/></g><g transform="translate(0 0)"><path d="M1755.984,2100.168a4.056,4.056,0,1,1,3.145-1.487A4.038,4.038,0,0,1,1755.984,2100.168Zm.008-6.551c-.084,0-.168,0-.253.013a2.493,2.493,0,0,0-1.33,4.411h0a2.493,2.493,0,1,0,1.583-4.424Z" transform="translate(-1751.93 -2092.054)" fill="#080372"/></g></g><g transform="translate(316.45 50.884)"><g transform="translate(0.781 0.781)"><circle cx="3.276" cy="3.276" r="3.276" fill="#0f05e2"/></g><path d="M1862.272,944a4.075,4.075,0,1,1,.175,0Q1862.359,944,1862.272,944Zm0-6.551a2.492,2.492,0,1,0,1.686.656A2.487,2.487,0,0,0,1862.276,937.445Z" transform="translate(-1858.219 -935.88)" fill="#080372"/></g><g transform="translate(282.91 381.211)"><g transform="translate(0.781 0.781)"><circle cx="3.276" cy="3.276" r="3.276" fill="#0f05e2"/></g><g transform="translate(0)"><path d="M1733.707,2210.173a4.027,4.027,0,0,1-2.742-1.07h0a4.058,4.058,0,1,1,2.918,1.067C1733.824,2210.172,1733.765,2210.173,1733.707,2210.173Zm.005-6.551a2.493,2.493,0,0,0-1.688,4.328h0a2.493,2.493,0,1,0,1.688-4.328Z" transform="translate(-1729.654 -2202.058)" fill="#080372"/></g></g><g transform="translate(309.295 305.172)"><g transform="translate(0.781 0.783)"><circle cx="3.276" cy="3.276" r="3.276" fill="#0f05e2"/></g><g transform="translate(0)"><path d="M1834.845,1918.713a4.029,4.029,0,0,1-2.709-1.041h0a4.058,4.058,0,1,1,2.929,1.035C1834.992,1918.711,1834.918,1918.713,1834.845,1918.713Zm-1.663-2.205a2.493,2.493,0,1,0,3.335-3.708,2.494,2.494,0,0,0-3.521.187,2.5,2.5,0,0,0,.187,3.521Z" transform="translate(-1830.793 -1910.594)" fill="#080372"/></g></g><g transform="translate(306.019 339.018)"><g transform="translate(0.781 0.781)"><circle cx="3.276" cy="3.276" r="3.276" fill="#0f05e2"/></g><g transform="translate(0)"><path d="M1822.288,2048.444a4.041,4.041,0,0,1-2.566-.915h0a4.064,4.064,0,1,1,2.566.915Zm-1.575-2.127a2.494,2.494,0,1,0-.351-3.509,2.476,2.476,0,0,0,.351,3.509Z" transform="translate(-1818.234 -2040.329)" fill="#080372"/></g></g><g transform="translate(47.746 365.977)"><g transform="translate(0.781 0.781)"><circle cx="3.276" cy="3.276" r="3.276" fill="#0f05e2"/></g><path d="M832.3,2151.779a4.04,4.04,0,0,1-2.566-.916h0a4.063,4.063,0,1,1,2.566.916Zm-1.575-2.127a2.494,2.494,0,1,0-.351-3.509,2.479,2.479,0,0,0,.351,3.509Z" transform="translate(-828.247 -2143.665)" fill="#080372"/></g><g transform="translate(90.485 406.463)"><g transform="translate(0.783 0.781)"><circle cx="3.276" cy="3.276" r="3.276" fill="#0f05e2"/></g><path d="M996.127,2306.968a4.027,4.027,0,0,1-2.742-1.07h0a4.059,4.059,0,1,1,2.918,1.067C996.244,2306.967,996.185,2306.968,996.127,2306.968Zm.005-6.551a2.492,2.492,0,0,0-1.688,4.328h0a2.493,2.493,0,1,0,1.688-4.328Z" transform="translate(-992.072 -2298.853)" fill="#080372"/></g><g transform="translate(3.455 360.86)"><g transform="translate(0.783 0.781)"><circle cx="3.276" cy="3.276" r="3.276" fill="#0f05e2"/></g><path d="M662.528,2132.167a4.028,4.028,0,0,1-2.742-1.07h0a4.058,4.058,0,1,1,2.917,1.067C662.645,2132.166,662.587,2132.167,662.528,2132.167Zm.005-6.551a2.493,2.493,0,0,0-1.688,4.328h0a2.493,2.493,0,0,0,3.523-.149,2.492,2.492,0,0,0-1.835-4.179Z" transform="translate(-658.474 -2124.051)" fill="#080372"/></g><g transform="translate(52.28 343.697)"><g transform="translate(0.783 0.783)"><circle cx="3.276" cy="3.276" r="3.276" fill="#0f05e2"/></g><g transform="translate(0 0)"><path d="M849.684,2066.378a4.057,4.057,0,1,1,3.02-1.343A4.042,4.042,0,0,1,849.684,2066.378Zm.005-6.551q-.067,0-.135,0a2.485,2.485,0,1,0,.135,0Z" transform="translate(-845.627 -2058.262)" fill="#080372"/></g></g><g transform="translate(381.742 226.305)"><g transform="translate(0)"><g transform="translate(0.915 0.914)"><path d="M2117.431,1658.908a3.126,3.126,0,0,0,.576-.9,245.675,245.675,0,0,0,13.6-42.41,3.131,3.131,0,0,0-6.111-1.363,239.431,239.431,0,0,1-13.254,41.326,3.131,3.131,0,0,0,5.187,3.342Z" transform="translate(-2111.994 -1611.79)" fill="#0f05e2"/></g><path d="M2112.531,1658.242a4.043,4.043,0,0,1-3.719-5.623,238.516,238.516,0,0,0,13.2-41.168,4.044,4.044,0,1,1,7.893,1.761,246.561,246.561,0,0,1-13.653,42.568,4.032,4.032,0,0,1-.744,1.156h0A4.049,4.049,0,0,1,2112.531,1658.242Zm13.427-48.129a2.219,2.219,0,0,0-2.16,1.735,240.349,240.349,0,0,1-13.305,41.484,2.217,2.217,0,1,0,4.082,1.734,244.7,244.7,0,0,0,13.552-42.252,2.218,2.218,0,0,0-1.682-2.647A2.241,2.241,0,0,0,2125.958,1610.113Z" transform="translate(-2108.488 -1608.286)" fill="#080372"/></g></g></g><g transform="translate(145.068 546.615)"><path d="M825.6,2213.08H785.145l20.523-19.936Z" transform="translate(-785.145 -2193.145)" fill="#02dc8c"/></g><g transform="translate(290.53 526.169)"><path d="M1423.5,2155.218a40.391,40.391,0,1,0-80.781,0Z" transform="translate(-1342.714 -2114.775)" fill="#99f0d0"/></g><g transform="translate(168.786 526.169)"><path d="M956.839,2155.218a40.391,40.391,0,1,0-80.781,0Z" transform="translate(-876.058 -2114.775)" fill="#99f0d0"/></g><g transform="translate(364.202 551.241)"><path d="M1656.094,2226.145h-30.986l15.718-15.268Z" transform="translate(-1625.109 -2210.877)" fill="#006837"/></g><g transform="translate(148.342 392.013)"><path d="M830.5,1606.322a7.147,7.147,0,0,0-1.916.262,12.923,12.923,0,0,0-21.872-.013,7.147,7.147,0,0,0-9.017,6.9h39.95A7.146,7.146,0,0,0,830.5,1606.322Z" transform="translate(-797.694 -1600.54)" fill="#02dc8c"/></g><g transform="translate(411.766 74.44)"><path d="M1824.82,386.317a3.782,3.782,0,0,0-1.016.139,6.853,6.853,0,0,0-11.6-.007,3.79,3.79,0,0,0-4.782,3.657h21.186A3.79,3.79,0,0,0,1824.82,386.317Z" transform="translate(-1807.424 -383.251)" fill="#6f69ed"/></g><g transform="translate(88.751 72.969)"><path d="M586.672,380.68a3.783,3.783,0,0,0-1.016.139,6.853,6.853,0,0,0-11.6-.007,3.789,3.789,0,0,0-4.781,3.657h21.186A3.79,3.79,0,0,0,586.672,380.68Z" transform="translate(-569.276 -377.614)" fill="#0f05e2"/></g><g transform="translate(229.605 276.256)"><path d="M1126.577,1159.9a3.792,3.792,0,0,0-1.016.139,6.854,6.854,0,0,0-11.6-.007,3.79,3.79,0,0,0-4.782,3.658h21.186A3.79,3.79,0,0,0,1126.577,1159.9Z" transform="translate(-1109.181 -1156.833)" fill="#0f05e2"/></g><g transform="translate(351.714 28.201)"><path d="M1610.043,211.792a7.137,7.137,0,0,0-1.916.262,12.924,12.924,0,0,0-21.872-.013,7.146,7.146,0,0,0-9.017,6.9h39.95A7.146,7.146,0,0,0,1610.043,211.792Z" transform="translate(-1577.239 -206.011)" fill="#02dc8c"/></g><g transform="translate(189.208 439)"><g transform="translate(0.261 0.279)"><rect width="60.794" height="127.428" fill="#02dc8c"/></g><g transform="translate(61.003 0.279)"><rect width="20.313" height="127.428" fill="#006837"/></g><g transform="translate(20.584 102.271)"><rect width="20.2" height="25.435" fill="#006837"/></g><g transform="translate(30.658 102.271)"><rect width="10.125" height="25.435" fill="#99f0d0"/></g><g transform="translate(6.934 42.866)"><rect width="6.925" height="6.925" rx="3.462" fill="#006837"/></g><g transform="translate(6.934 54.747)"><rect width="6.925" height="6.925" fill="#99f0d0"/></g><g transform="translate(6.934 66.628)"><rect width="6.925" height="6.925" fill="#fff"/></g><g transform="translate(6.934 78.509)"><rect width="6.925" height="6.925" fill="#99f0d0"/></g><g transform="translate(6.934 90.39)"><rect width="6.925" height="6.925" fill="#fff"/></g><g transform="translate(20.522 42.866)"><rect width="6.925" height="6.925" fill="#99f0d0"/></g><g transform="translate(20.522 54.747)"><rect width="6.925" height="6.925" rx="3.462" fill="#fff"/></g><g transform="translate(20.522 66.628)"><rect width="6.925" height="6.925" rx="3.462" fill="#006837"/></g><g transform="translate(20.522 78.509)"><rect width="6.925" height="6.925" fill="#99f0d0"/></g><g transform="translate(20.522 90.39)"><rect width="6.925" height="6.925" fill="#fff"/></g><g transform="translate(33.838 42.866)"><rect width="6.925" height="6.925" rx="3.462" fill="#006837"/></g><g transform="translate(33.838 54.747)"><rect width="6.925" height="6.925" fill="#006837"/></g><g transform="translate(33.838 66.628)"><rect width="6.925" height="6.925" fill="#006837"/></g><g transform="translate(33.838 78.509)"><rect width="6.925" height="6.925" rx="3.462" fill="#99f0d0"/></g><g transform="translate(33.838 90.39)"><rect width="6.925" height="6.925" rx="3.462" fill="#006837"/></g><g transform="translate(47.457 42.866)"><rect width="6.925" height="6.925" rx="3.462" fill="#006837"/></g><g transform="translate(47.457 54.747)"><rect width="6.925" height="6.925" fill="#99f0d0"/></g><g transform="translate(47.457 19.104)"><g transform="translate(0 0)"><rect width="6.925" height="6.925" rx="3.462" transform="translate(6.925 6.925) rotate(180)" fill="#006837"/></g></g><g transform="translate(47.457 30.985)"><g transform="translate(0 0)"><rect width="6.925" height="6.925" transform="translate(6.925 6.925) rotate(180)" fill="#99f0d0"/></g></g><g transform="translate(33.869 19.104)"><g transform="translate(0 0)"><rect width="6.925" height="6.925" transform="translate(6.925 6.925) rotate(180)" fill="#99f0d0"/></g></g><g transform="translate(33.869 30.985)"><g transform="translate(0 0)"><rect width="6.925" height="6.925" rx="3.462" transform="translate(6.925 6.925) rotate(180)" fill="#fff"/></g></g><g transform="translate(20.553 19.104)"><g transform="translate(0 0)"><rect width="6.925" height="6.925" rx="3.462" transform="translate(6.925 6.925) rotate(-180)" fill="#fff"/></g></g><g transform="translate(20.553 30.985)"><g transform="translate(0 0)"><rect width="6.925" height="6.925" transform="translate(6.925 6.925) rotate(180)" fill="#006837"/></g></g><g transform="translate(6.934 19.104)"><g transform="translate(0 0)"><rect width="6.925" height="6.925" rx="3.462" transform="translate(6.925 6.925) rotate(180)" fill="#006837"/></g></g><g transform="translate(6.934 30.985)"><g transform="translate(0 0)"><rect width="6.925" height="6.925" transform="translate(6.925 6.925) rotate(180)" fill="#99f0d0"/></g></g><g transform="translate(47.457 66.628)"><rect width="6.925" height="6.925" fill="#fff"/></g><g transform="translate(47.457 78.509)"><rect width="6.925" height="6.925" fill="#006837"/></g><g transform="translate(47.457 90.39)"><rect width="6.925" height="6.925" fill="#99f0d0"/></g><g transform="translate(47.457 102.271)"><rect width="6.925" height="6.925" rx="3.462" fill="#99f0d0"/></g><g transform="translate(47.457 114.152)"><rect width="6.925" height="6.925" fill="#006837"/></g><g transform="translate(6.934 102.271)"><rect width="6.925" height="6.925" rx="3.462" fill="#99f0d0"/></g><g transform="translate(6.934 114.152)"><rect width="6.925" height="6.925" rx="3.462" fill="#006837"/></g><g transform="translate(27.826 0.018)"><rect width="12.424" height="0.522" fill="#1c1c1c"/></g><g transform="translate(0.404)"><path d="M956.408,1796.644h-.522v-16h23.984v.522H956.408Z" transform="translate(-955.886 -1780.647)" fill="#1c1c1c"/></g><g transform="translate(60.794 33.338)"><rect width="0.522" height="24.477" fill="#1c1c1c"/></g><g transform="translate(0 57.852)"><rect width="0.522" height="69.855" fill="#1c1c1c"/></g><g transform="translate(47.457 54.747)"><path d="M1141.766,1990.5v5.513h-5.522v1.412h6.925V1990.5Z" transform="translate(-1136.245 -1990.497)" fill="#006837"/></g><g transform="translate(6.934 66.628)"><path d="M986.439,2036.038v5.513h-5.521v1.412h6.924v-6.924Z" transform="translate(-980.918 -2036.038)" fill="#006837"/></g><g transform="translate(6.934 6.982)"><rect width="6.925" height="6.925" fill="#99f0d0"/></g><g transform="translate(20.522 6.982)"><rect width="6.925" height="6.925" rx="3.462" fill="#006837"/></g><g transform="translate(33.838 6.982)"><rect width="6.925" height="6.925" fill="#006837"/></g><g transform="translate(47.457 6.982)"><rect width="6.925" height="6.925" fill="#fff"/></g><g transform="translate(6.934 6.982)"><path d="M986.439,1807.411v5.512h-5.521v1.412h6.924v-6.925Z" transform="translate(-980.918 -1807.411)" fill="#006837"/></g></g><g transform="translate(270.356 387.109)"><g transform="translate(0.261)"><g transform="translate(0 0.261)"><path d="M1335.373,1643.477v-33.152h-11.207v-10.16a17.421,17.421,0,0,0-17.421-17.422h0a17.422,17.422,0,0,0-17.421,17.422v10.16h-11.207v33.152h-11.733v118.448h80.722V1643.477Z" transform="translate(-1266.384 -1582.744)" fill="#02dc8c"/></g><g transform="translate(28.51 142.125)"><path d="M11.851,0h0A11.851,11.851,0,0,1,23.7,11.851V37.317a0,0,0,0,1,0,0H0a0,0,0,0,1,0,0V11.851A11.851,11.851,0,0,1,11.851,0Z" fill="#99f0d0"/></g><g transform="translate(40.331 142.125)"><path d="M.424,0h0A11.457,11.457,0,0,1,11.881,11.457V36.893a.424.424,0,0,1-.424.424H.424A.424.424,0,0,1,0,36.893V.424A.424.424,0,0,1,.424,0Z" fill="#99f0d0"/></g><g transform="translate(29.903 6.311)"><path d="M10.458,0h0A10.458,10.458,0,0,1,20.916,10.458V21.532a0,0,0,0,1,0,0H0a0,0,0,0,1,0,0V10.458A10.458,10.458,0,0,1,10.458,0Z" fill="#99f0d0"/></g><g transform="translate(40.335 6.311)"><path d="M.374,0h0A10.111,10.111,0,0,1,10.484,10.111V21.158a.374.374,0,0,1-.374.374H.374A.374.374,0,0,1,0,21.158V.374A.374.374,0,0,1,.374,0Z" fill="#006837"/></g><g transform="translate(11.733 142.125)"><rect width="6.925" height="6.925" fill="#99f0d0"/></g><g transform="translate(62.064 142.125)"><rect width="6.925" height="6.925" fill="#fff"/></g><g transform="translate(62.064 154.006)"><rect width="6.925" height="6.925" rx="3.462" fill="#fff"/></g><g transform="translate(62.064 165.887)"><rect width="6.925" height="6.925" fill="#99f0d0"/></g><g transform="translate(11.733 154.006)"><rect width="6.925" height="6.925" rx="3.462" fill="#fff"/></g><g transform="translate(11.733 165.887)"><rect width="6.925" height="6.925" rx="3.462" fill="#006837"/></g><g transform="translate(11.733 94.601)"><rect width="6.925" height="6.925" rx="3.462" fill="#99f0d0"/></g><g transform="translate(11.733 106.482)"><rect width="6.925" height="6.925" fill="#fff"/></g><g transform="translate(11.733 118.363)"><rect width="6.925" height="6.925" fill="#99f0d0"/></g><g transform="translate(11.733 130.244)"><rect width="6.925" height="6.925" fill="#006837"/></g><g transform="translate(28.51 94.601)"><rect width="6.925" height="6.925" fill="#006837"/></g><g transform="translate(28.51 106.482)"><rect width="6.925" height="6.925" rx="3.462" fill="#fff"/></g><g transform="translate(28.51 118.363)"><rect width="6.925" height="6.925" rx="3.462" fill="#99f0d0"/></g><g transform="translate(28.51 130.244)"><rect width="6.925" height="6.925" fill="#006837"/></g><g transform="translate(45.287 94.601)"><rect width="6.925" height="6.925" rx="3.462" fill="#99f0d0"/></g><g transform="translate(45.287 106.482)"><rect width="6.925" height="6.925" fill="#99f0d0"/></g><g transform="translate(45.287 118.363)"><rect width="6.925" height="6.925" fill="#99f0d0"/></g><g transform="translate(45.287 130.244)"><rect width="6.925" height="6.925" rx="3.462" fill="#fff"/></g><g transform="translate(62.064 94.601)"><rect width="6.925" height="6.925" rx="3.462" fill="#99f0d0"/></g><g transform="translate(62.064 106.482)"><rect width="6.925" height="6.925" fill="#99f0d0"/></g><g transform="translate(62.064 70.839)"><g transform="translate(0 0)"><rect width="6.925" height="6.925" rx="3.462" transform="translate(6.925 6.925) rotate(-180)" fill="#99f0d0"/></g></g><g transform="translate(62.064 82.72)"><g transform="translate(0 0)"><rect width="6.925" height="6.925" transform="translate(6.925 6.925) rotate(180)" fill="#fff"/></g></g><g transform="translate(36.592 35.121)"><g transform="translate(0 0)"><rect width="6.925" height="25.745" transform="translate(6.925 25.745) rotate(180)" fill="#fff"/></g></g><g transform="translate(20.525 35.121)"><g transform="translate(0 0)"><rect width="6.925" height="25.745" transform="translate(6.925 25.745) rotate(180)" fill="#99f0d0"/></g></g><g transform="translate(52.78 35.121)"><g transform="translate(0 0)"><rect width="6.925" height="25.745" transform="translate(6.925 25.745) rotate(180)" fill="#99f0d0"/></g></g><g transform="translate(45.287 70.839)"><g transform="translate(0 0)"><rect width="6.925" height="6.925" transform="translate(6.925 6.925) rotate(180)" fill="#006837"/></g></g><g transform="translate(45.287 82.72)"><g transform="translate(0 0)"><rect width="6.925" height="6.925" rx="3.462" transform="translate(6.925 6.925) rotate(-180)" fill="#fff"/></g></g><g transform="translate(28.51 70.839)"><g transform="translate(0 0)"><rect width="6.925" height="6.925" rx="3.462" transform="translate(6.925 6.925) rotate(180)" fill="#99f0d0"/></g></g><g transform="translate(28.51 82.72)"><g transform="translate(0 0)"><rect width="6.925" height="6.925" transform="translate(6.925 6.925) rotate(180)" fill="#99f0d0"/></g></g><g transform="translate(11.733 70.839)"><g transform="translate(0 0)"><rect width="6.925" height="6.925" rx="3.462" transform="translate(6.925 6.925) rotate(-180)" fill="#99f0d0"/></g></g><g transform="translate(11.733 82.72)"><g transform="translate(0 0)"><rect width="6.925" height="6.925" transform="translate(6.925 6.925) rotate(180)" fill="#006837"/></g></g><g transform="translate(62.064 118.363)"><rect width="6.925" height="6.925" fill="#fff"/></g><g transform="translate(62.064 130.244)"><rect width="6.925" height="6.925" fill="#99f0d0"/></g><g transform="translate(62.064 106.482)"><path d="M1509.8,1989.9v5.513h-5.521v1.412h6.924V1989.9Z" transform="translate(-1504.283 -1989.901)" fill="#006837"/></g><g transform="translate(11.733 118.363)"><path d="M1316.88,2035.442v5.512h-5.521v1.412h6.924v-6.925Z" transform="translate(-1311.359 -2035.442)" fill="#006837"/></g><g transform="translate(52.78 35.157)"><path d="M1474.215,1716.5v24.3h-5.521v1.412h6.925V1716.5Z" transform="translate(-1468.694 -1716.505)" fill="#006837"/></g><g transform="translate(20.476 35.157)"><path d="M1350.394,1716.5v24.3h-5.521v1.412h6.925V1716.5Z" transform="translate(-1344.872 -1716.505)" fill="#006837"/></g><g transform="translate(36.592 35.157)"><path d="M1412.167,1716.5v24.3h-5.521v1.412h6.925V1716.5Z" transform="translate(-1406.646 -1716.505)" fill="#99f0d0"/></g><g transform="translate(62.064 130.244)"><path d="M1509.8,2080.983v5.512h-5.521v1.412h6.924v-6.925Z" transform="translate(-1504.283 -2080.983)" fill="#006837"/></g><g transform="translate(11.472 54.321)"><rect width="0.522" height="6.673"/></g><g transform="translate(11.472 27.582)"><path d="M1310.881,1707.154h-.522v-19.687h11.467v.522h-10.946Z" transform="translate(-1310.359 -1687.467)"/></g><g transform="translate(22.679)"><path d="M1388.678,1599.426h-.522a17.16,17.16,0,0,0-34.321,0h-.522a17.682,17.682,0,0,1,35.365,0Z" transform="translate(-1353.314 -1581.744)"/></g><g transform="translate(57.782 27.842)"><path d="M1487.869,1688.467" transform="translate(-1487.869 -1688.467)" fill="none" stroke="#000" stroke-miterlimit="10" stroke-width="2"/></g><g transform="translate(68.728 50.354)"><path d="M1535.377,1785.657h-5.552v-10.9h.522v10.379h5.03Z" transform="translate(-1529.825 -1774.756)"/></g></g><g transform="translate(0 67.217)"><rect width="0.522" height="46.96" fill="#1c1c1c"/></g><g transform="translate(0 118.43)"><rect width="0.522" height="60.784" fill="#1c1c1c"/></g></g><g transform="translate(226.508 439.122)" style="mix-blend-mode:multiply;isolation:isolate"><rect width="3.325" height="127.547" fill="#006837"/></g><g transform="translate(310.671 387.109)" style="mix-blend-mode:multiply;isolation:isolate"><rect width="3.325" height="179.56" fill="#006837"/></g><g transform="translate(264.079)"><g transform="translate(28.084 53.889)"><path d="M1387.753,415.753q-4.845-1.64-9.8-3.024-3.331-.931-6.71-1.738a187.49,187.49,0,0,0-22.266-3.934l10.326-56.709,2.194-12.05v0l5-27.432.634-3.472.224-1.237.065-.368.222-1.21.018-.1.023.123.485,2.69.626,3.472Z" transform="translate(-1348.975 -304.478)" fill="#02dc8c"/></g><g transform="translate(46.396 53.889)"><path d="M1429.83,412.73q-3.33-.931-6.71-1.738l-2.04-54.974-.342-9.188v0l-1.333-35.911-.13-3.517-.047-1.244-.044-1.15-.016-.428,0-.1.01.1.034.35.083.863.159,1.6.344,3.5,4.2,42.623v0l.436,4.414Z" transform="translate(-1419.165 -304.478)" fill="#99f0d0"/></g><g transform="translate(34.506)"><path d="M1385.457,97.915c-26.814,26.814.2,53.889.2,53.889Z" transform="translate(-1373.591 -97.915)" fill="#02dc8c"/></g><g transform="translate(0 53.889)"><path d="M1241.325,331.594c36.628,9.815,46.571-27.116,46.571-27.116Z" transform="translate(-1241.325 -304.478)" fill="#02dc8c"/></g><g transform="translate(46.571 52.682)"><path d="M1466.6,327.831c-9.814-36.628-46.769-26.773-46.769-26.773Z" transform="translate(-1419.835 -299.851)" fill="#02dc8c"/></g><g transform="translate(39.894 47.206)"><circle cx="6.564" cy="6.564" r="6.564" fill="#006837"/></g><g transform="translate(43.414 50.726)"><circle cx="3.043" cy="3.043" r="3.043" fill="#02dc8c"/></g><g transform="translate(39.633 53.769)"><path d="M1400.068,310.844a6.832,6.832,0,0,1-6.824-6.825h.522a6.31,6.31,0,0,0,6.3,6.3Z" transform="translate(-1393.243 -304.019)" fill="#1c1c1c"/></g><g transform="translate(28.449 114.597)"><g transform="translate(0 0)"><rect width="39.523" height="0.522" transform="translate(0 38.921) rotate(-79.99)" fill="#1c1c1c"/></g></g><g transform="translate(39.632 69.797)"><g transform="translate(0 0)"><rect width="23.796" height="0.522" transform="translate(0 23.461) rotate(-80.386)" fill="#1c1c1c"/></g></g></g><g transform="translate(183.238 0.043)"><g transform="translate(26.564 53.888)"><path d="M1071.93,407.174q-4.156.477-8.26,1.137-3.178.509-6.321,1.124a187.14,187.14,0,0,0-24.074,6.389l8.81-48.519,10.221-56.281.629-3.472.511-2.82.01-.047v-.01l.008-.037.021.117.485,2.7.626,3.472,7.14,39.647,1.782,9.89Z" transform="translate(-1033.275 -304.638)" fill="#02dc8c"/></g><g transform="translate(46.746 53.925)"><path d="M1120.849,408.415q-3.178.509-6.321,1.124l-1.816-48.825-.232-6.293-1.61-43.26-.13-3.522-.1-2.8v-.065l.008.068.271,2.765.347,3.509,4.1,41.624.8,8.116Z" transform="translate(-1110.635 -304.778)" fill="#99f0d0"/></g><g transform="translate(34.506)"><path d="M1075.586,98.078c-26.814,26.814.2,53.89.2,53.89Z" transform="translate(-1063.72 -98.078)" fill="#99f0d0"/></g><g transform="translate(0 53.889)"><path d="M931.454,331.758c36.628,9.815,46.57-27.116,46.57-27.116Z" transform="translate(-931.454 -304.642)" fill="#99f0d0"/></g><g transform="translate(46.57 52.682)"><path d="M1156.732,327.995c-9.815-36.628-46.769-26.773-46.769-26.773Z" transform="translate(-1109.963 -300.015)" fill="#99f0d0"/></g><g transform="translate(39.894 47.206)"><circle cx="6.564" cy="6.564" r="6.564" fill="#02dc8c"/></g><g transform="translate(39.633 53.769)"><path d="M1090.2,311.007a6.832,6.832,0,0,1-6.825-6.825h.522a6.31,6.31,0,0,0,6.3,6.3Z" transform="translate(-1083.372 -304.182)" fill="#1c1c1c"/></g><g transform="translate(43.414 50.726)"><circle cx="3.043" cy="3.043" r="3.043" fill="#99f0d0"/></g><g transform="translate(34.237 7.715)"><path d="M1064,155.01a32.636,32.636,0,0,1,4.2-27.359l.439.282a32.135,32.135,0,0,0-4.135,26.937Z" transform="translate(-1062.688 -127.651)" fill="#1c1c1c"/></g><g transform="translate(35.114 77.588)"><g transform="translate(0)"><rect width="39.523" height="0.522" transform="translate(0 38.921) rotate(-79.99)" fill="#1c1c1c"/></g></g></g><g transform="translate(223.621 27.384)"><g transform="translate(28.7 53.402)"><path d="M1232.236,482.856q-5.052-.477-10.182-.689-3-.121-6.032-.151-.892-.008-1.787-.008-9.1,0-17.98.845l16.433-68.477.822-3.431.462-1.92.162-.673.013-.063.047-.188.013-.06.112-.464.1.412.065.277.2.856.4,1.67.819,3.441Z" transform="translate(-1196.255 -407.578)" fill="#0f05e2"/></g><g transform="translate(46.57 53.911)"><path d="M1272.683,483.609q-3-.121-6.032-.151l-1.732-67.512-.091-3.525-.05-1.928-.016-.7-.008-.266.021.2.083.772.2,1.9.373,3.5Z" transform="translate(-1264.755 -409.528)" fill="#6f69ed"/></g><g transform="translate(34.506)"><path d="M1230.378,202.881c-26.814,26.814.2,53.889.2,53.889Z" transform="translate(-1218.512 -202.881)" fill="#0f05e2"/></g><g transform="translate(0 53.889)"><path d="M1086.246,436.561c36.628,9.815,46.571-27.116,46.571-27.116Z" transform="translate(-1086.246 -409.445)" fill="#0f05e2"/></g><g transform="translate(46.571 52.682)"><path d="M1311.525,432.8c-9.815-36.628-46.769-26.773-46.769-26.773Z" transform="translate(-1264.756 -404.818)" fill="#0f05e2"/></g><g transform="translate(39.894 47.206)"><circle cx="6.564" cy="6.564" r="6.564" fill="#080372"/></g><g transform="translate(43.414 50.726)"><circle cx="3.043" cy="3.043" r="3.043" fill="#0f05e2"/></g><g transform="translate(67.772 53.634)"><path d="M1370.54,432.862c-4.2-12.9-12.445-20.937-24.516-23.889l.124-.507a33.305,33.305,0,0,1,14.143,7.175c4.81,4.188,8.425,9.928,10.745,17.06Z" transform="translate(-1346.024 -408.466)" fill="#1c1c1c"/></g><g transform="translate(33.663 64.296)"><path d="M1215.629,459.57l-.348-.389a41.76,41.76,0,0,0,7.986-9.847l.449.267A42.282,42.282,0,0,1,1215.629,459.57Z" transform="translate(-1215.281 -449.333)" fill="#1c1c1c"/></g><g transform="translate(34.238 13.068)"><path d="M1223.561,285.878c-4.67-7.784-9.055-19.811-3.422-32.906l.479.206c-5.546,12.892-1.218,24.752,3.39,32.431Z" transform="translate(-1217.485 -252.972)" fill="#1c1c1c"/></g><g transform="translate(31.139 83.871)"><g transform="translate(0 0)"><rect width="34.47" height="0.522" transform="matrix(0.228, -0.974, 0.974, 0.228, 0, 33.558)" fill="#1c1c1c"/></g></g></g><g transform="translate(347.719 323.769)"><path d="M1600.67,1345.784a8.44,8.44,0,0,0-2.263.309,15.264,15.264,0,0,0-25.832-.015,8.441,8.441,0,0,0-10.65,8.146h47.185A8.44,8.44,0,0,0,1600.67,1345.784Z" transform="translate(-1561.925 -1338.955)" fill="#6f69ed"/></g><g transform="translate(145.068 566.55)"><path d="M1035.61,2269.558a254.936,254.936,0,0,1-250.465,0Z" transform="translate(-785.145 -2269.558)" fill="#080372"/></g><g transform="translate(229.636 323.335)"><g transform="translate(0.261 0.423)"><path d="M1191.013,1500.776H1110.3V1338.911l80.71,40.458Z" transform="translate(-1110.303 -1338.911)" fill="#080372"/></g><g transform="translate(0.261 40.879)"><path d="M1110.3,1655.849h80.71V1493.984l-80.71,40.458Z" transform="translate(-1110.303 -1493.984)" fill="#0f05e2"/></g><g transform="translate(0.261 81.355)"><path d="M1191.013,1824.042H1110.3V1649.133l80.71,40.458Z" transform="translate(-1110.303 -1649.133)" fill="#6f69ed"/></g><g transform="translate(0.36 166.216)"><path d="M1127.43,1974.414v8.515l-16.746,8.4v-8.515Z" transform="translate(-1110.684 -1974.414)" fill="#fff"/></g><g transform="translate(19.731 160.33)"><path d="M1194.052,1951.854v8.515l-9.118,4.571v-8.515Z" transform="translate(-1184.934 -1951.854)" fill="#fff"/></g><g transform="translate(35.019 134.153)"><path d="M1289.586,1851.513v8.516l-46.052,23.086V1874.6Z" transform="translate(-1243.534 -1851.513)" fill="#fff"/></g><g transform="translate(22.955 96.545)"><rect width="0.522" height="159.666" fill="#0f05e2"/></g><g transform="translate(40.024 105.782)"><rect width="0.522" height="150.428" fill="#0f05e2"/></g><g transform="translate(57.094 114.338)"><rect width="0.522" height="141.872" fill="#0f05e2"/></g><g transform="translate(74.164 123.576)"><rect width="0.522" height="132.772" fill="#0f05e2"/></g><g transform="translate(5.885 88.905)"><rect width="0.522" height="167.305" fill="#0f05e2"/></g><g transform="translate(22.955 16.621)"><rect width="0.522" height="58.214" fill="#0f05e2"/></g><g transform="translate(40.024 24.848)"><rect width="0.522" height="42.799" fill="#0f05e2"/></g><g transform="translate(57.094 33.738)"><rect width="0.522" height="25.486" fill="#0f05e2"/></g><g transform="translate(74.164 42.295)"><rect width="0.522" height="8.409" fill="#0f05e2"/></g><g transform="translate(5.885 8.069)"><rect width="0.522" height="75.185" fill="#0f05e2"/></g><g transform="translate(48.89 61.004)"><rect width="0.522" height="53.145" fill="#6f69ed"/></g><g transform="translate(65.96 52.447)"><rect width="0.522" height="70.258" fill="#6f69ed"/></g><g transform="translate(31.82 69.561)"><rect width="0.522" height="36.187" fill="#6f69ed"/></g><g transform="translate(14.751 78.389)"><rect width="0.522" height="18.07" fill="#6f69ed"/></g><g transform="translate(52.714 107.474)"><path d="M1339.879,1775.928h-.522v-12.179l-28-14.034.234-.466,28.284,14.178Z" transform="translate(-1311.361 -1749.248)" fill="#1c1c1c"/></g><g transform="translate(44.725 103.644)"><path d="M1280.739,1734.568" transform="translate(-1280.739 -1734.568)" fill="none" stroke="#1c1c1c" stroke-miterlimit="10" stroke-width="2"/></g><g transform="translate(0 80.933)"><path d="M1128.917,1657.929l-19.093-9.57v9.478h-.522v-10.323l19.848,9.949Z" transform="translate(-1109.303 -1647.513)" fill="#1c1c1c"/></g><g transform="translate(0 132.684)"><rect width="0.522" height="32.847" fill="#1c1c1c"/></g><g transform="translate(0 172.416)"><rect width="0.522" height="83.848" fill="#1c1c1c"/></g><g transform="translate(80.711 218.012)"><rect width="0.522" height="38.252" fill="#1c1c1c"/></g><g transform="translate(80.711 156.154)"><rect width="0.522" height="52.336" fill="#1c1c1c"/></g><g transform="translate(0.145 71.341)"><g transform="translate(0 0)"><rect width="21.779" height="0.522" transform="translate(0 9.766) rotate(-26.64)" fill="#1c1c1c"/></g></g><g transform="translate(29.392 50.848)"><g transform="translate(0 0)"><rect width="34.793" height="0.522" transform="translate(0 15.601) rotate(-26.64)" fill="#1c1c1c"/></g></g><g transform="translate(68.635 40.456)"><path d="M1384.987,1552.272h-.522v-59.063l-11.841,5.936-.234-.466,12.6-6.315Z" transform="translate(-1372.39 -1492.364)" fill="#1c1c1c"/></g><g transform="translate(74.745 37.585)"><g transform="translate(0 0)"><rect width="0.522" height="6.834" transform="translate(0 0.466) rotate(-63.378)" fill="#1c1c1c"/></g></g><path d="M1155.374,1360.968l-45.549-22.832V1354.8h-.522V1337.29l.378.189,45.927,23.022Z" transform="translate(-1109.303 -1337.29)" fill="#1c1c1c"/><g transform="translate(0.261 24.265)"><path d="M1110.3,1430.3" transform="translate(-1110.303 -1430.301)" fill="none" stroke="#1c1c1c" stroke-miterlimit="10" stroke-width="2"/></g><g transform="translate(0 50.704)"><rect width="0.522" height="18.857" fill="#1c1c1c"/></g><g transform="translate(29.976 215.682)"><rect width="21.281" height="40.582" fill="#090272"/></g><g transform="translate(40.589 215.682)"><rect width="10.667" height="40.582" fill="#1906c9"/></g></g><g transform="translate(364.865 549.362)"><g transform="translate(0.261)"><path d="M1639.3,2207.773a4.222,4.222,0,0,0-8.439,0,6.43,6.43,0,1,0,8.439,0Z" transform="translate(-1628.648 -2203.678)" fill="#02dc8c"/></g><g transform="translate(3.299 6.518)"><path d="M1643.945,2239.331h-.522v-7.17l-3.131-3.131.369-.369,3.284,3.284Z" transform="translate(-1640.293 -2228.662)" fill="#1c1c1c"/></g><g transform="translate(6.486 10.814)"><g transform="translate(0 0)"><rect width="2.515" height="0.522" transform="translate(0 1.779) rotate(-45)" fill="#1c1c1c"/></g></g><g transform="translate(1.362 12.662)"><path d="M1634.529,2254.083a6.752,6.752,0,0,1-1.661-1.555l.415-.315a6.237,6.237,0,0,0,1.533,1.435Z" transform="translate(-1632.868 -2252.213)" fill="#1c1c1c"/></g><g transform="translate(0 0.431)"><path d="M1628.215,2216.529a6.585,6.585,0,0,1-.562-2.442,6.663,6.663,0,0,1,2.21-5.215,4.48,4.48,0,0,1,2.083-3.542l.278.441a3.96,3.96,0,0,0-1.845,3.231l0,.114-.086.075a6.149,6.149,0,0,0-2.116,4.878,6.076,6.076,0,0,0,.518,2.25Z" transform="translate(-1627.648 -2205.329)" fill="#1c1c1c"/></g></g><g transform="translate(162.315 549.362)"><g transform="translate(0.261)"><path d="M862.9,2207.773a4.222,4.222,0,0,0-8.439,0,6.43,6.43,0,1,0,8.439,0Z" transform="translate(-852.253 -2203.678)" fill="#006837"/></g><g transform="translate(3.299 6.518)"><path d="M867.55,2239.331h-.522v-7.17l-3.131-3.131.369-.369,3.284,3.284Z" transform="translate(-863.898 -2228.662)" fill="#1c1c1c"/></g><g transform="translate(6.486 10.814)"><g transform="translate(0 0)"><g transform="translate(0)"><rect width="2.515" height="0.522" transform="translate(0 1.779) rotate(-45)" fill="#1c1c1c"/></g></g></g><g transform="translate(1.362 12.662)"><path d="M858.134,2254.083a6.755,6.755,0,0,1-1.661-1.555l.415-.315a6.234,6.234,0,0,0,1.533,1.435Z" transform="translate(-856.473 -2252.213)" fill="#1c1c1c"/></g><g transform="translate(0 0.431)"><path d="M851.819,2216.529a6.59,6.59,0,0,1-.562-2.442,6.664,6.664,0,0,1,2.211-5.215,4.479,4.479,0,0,1,2.083-3.542l.279.441a3.96,3.96,0,0,0-1.845,3.231l0,.114-.086.075a6.149,6.149,0,0,0-2.116,4.878,6.074,6.074,0,0,0,.518,2.25Z" transform="translate(-851.253 -2205.329)" fill="#1c1c1c"/></g></g><g transform="translate(145.068 566.39)"><rect width="69.855" height="0.522" fill="#1c1c1c"/></g><g transform="translate(310.749 566.39)"><rect width="47.068" height="0.522" fill="#1c1c1c"/></g><g transform="translate(362.568 566.39)"><rect width="32.522" height="0.522" fill="#1c1c1c"/></g><g transform="translate(125.004 128.196)"><g transform="translate(0 0)"><rect width="14.838" height="3.499" transform="translate(14.838 3.499) rotate(180)" fill="#080372"/></g></g><g transform="translate(80.243 100.813)"><g transform="translate(0.066 0.23)"><path d="M625.011,507.205v2.2H557.6l-20.682-21.465v-2.718Z" transform="translate(-536.913 -485.223)" fill="#080372"/></g><g transform="translate(0)"><g transform="translate(0 0.23)"><path d="M624.871,507.205h-66.7l-21.508-21.982h66.7Z" transform="translate(-536.662 -485.223)" fill="#6f69ed"/><g transform="translate(8.95 3.467)"><g transform="translate(4.117 3.665)"><rect width="54.727" height="0.391" fill="#0f05e2"/></g><g transform="translate(7.67 7.328)"><rect width="54.919" height="0.391" fill="#0f05e2"/></g><g transform="translate(11.09 10.992)"><rect width="55.118" height="0.391" fill="#0f05e2"/></g><g transform="translate(49.042 0.059)"><g transform="translate(0 0)"><rect width="0.391" height="20.503" transform="translate(0 0.274) rotate(-44.375)" fill="#0f05e2"/></g></g><g transform="translate(42.977 0.059)"><g transform="translate(0 0)"><rect width="0.391" height="20.503" transform="translate(0 0.274) rotate(-44.375)" fill="#0f05e2"/></g></g><g transform="translate(36.914 0.059)"><g transform="translate(0 0)"><rect width="0.391" height="20.503" transform="translate(0 0.274) rotate(-44.375)" fill="#0f05e2"/></g></g><g transform="translate(30.851 0.059)"><g transform="translate(0 0)"><rect width="0.391" height="20.503" transform="translate(0 0.274) rotate(-44.375)" fill="#0f05e2"/></g></g><g transform="translate(24.786 0.059)"><g transform="translate(0 0)"><rect width="0.391" height="20.503" transform="translate(0 0.274) rotate(-44.375)" fill="#0f05e2"/></g></g><g transform="translate(18.723 0.059)"><g transform="translate(0 0)"><rect width="0.391" height="20.503" transform="translate(0 0.274) rotate(-44.375)" fill="#0f05e2"/></g></g><g transform="translate(12.66 0.059)"><g transform="translate(0 0)"><rect width="0.391" height="20.503" transform="translate(0 0.274) rotate(-44.375)" fill="#0f05e2"/></g></g><g transform="translate(6.595 0.059)"><g transform="translate(0 0)"><rect width="0.391" height="20.503" transform="translate(0 0.274) rotate(-44.375)" fill="#0f05e2"/></g></g><path d="M641.179,513.561H585.691l-14.723-15.048h55.487Zm-55.323-.391h54.392L626.291,498.9H571.9Z" transform="translate(-570.968 -498.513)" fill="#0f05e2"/></g></g><g transform="translate(40.072)"><path d="M729.759,498.494l-13.336-13.63H690.261v-.522h26.381l13.49,13.787Z" transform="translate(-690.261 -484.342)" fill="#1c1c1c"/></g><g transform="translate(23.064)"><rect width="12.335" height="0.522" fill="#1c1c1c"/></g></g></g><g transform="translate(105.713 116.213)"><g transform="translate(0.112 0.261)"><path d="M722.816,566.356v2.2H655.4l-20.682-21.465v-2.718Z" transform="translate(-634.719 -544.374)" fill="#006837"/></g><g transform="translate(0 0.261)"><path d="M722.5,566.356H655.8l-21.508-21.982h66.7Z" transform="translate(-634.291 -544.374)" fill="#02dc8c"/></g><g transform="translate(8.95 3.513)"><g transform="translate(4.117 3.665)"><rect width="54.727" height="0.391" fill="#99f0d0"/></g><g transform="translate(7.67 7.328)"><rect width="54.919" height="0.391" fill="#99f0d0"/></g><g transform="translate(11.09 10.992)"><rect width="55.118" height="0.391" fill="#99f0d0"/></g><g transform="translate(49.042 0.059)"><g transform="translate(0 0)"><rect width="0.391" height="20.503" transform="translate(0 0.274) rotate(-44.375)" fill="#99f0d0"/></g></g><g transform="translate(42.977 0.059)"><g transform="translate(0 0)"><rect width="0.391" height="20.503" transform="translate(0 0.274) rotate(-44.375)" fill="#99f0d0"/></g></g><g transform="translate(36.914 0.059)"><g transform="translate(0 0)"><rect width="0.391" height="20.503" transform="translate(0 0.274) rotate(-44.375)" fill="#99f0d0"/></g></g><g transform="translate(30.851 0.059)"><g transform="translate(0 0)"><rect width="0.391" height="20.503" transform="translate(0 0.274) rotate(-44.375)" fill="#99f0d0"/></g></g><g transform="translate(24.786 0.059)"><g transform="translate(0 0)"><rect width="0.391" height="20.503" transform="translate(0 0.274) rotate(-44.375)" fill="#99f0d0"/></g></g><g transform="translate(18.723 0.059)"><g transform="translate(0 0)"><rect width="0.391" height="20.503" transform="translate(0 0.274) rotate(-44.375)" fill="#99f0d0"/></g></g><g transform="translate(12.66 0.059)"><g transform="translate(0 0)"><rect width="0.391" height="20.503" transform="translate(0 0.274) rotate(-44.375)" fill="#99f0d0"/></g></g><g transform="translate(6.595 0.059)"><g transform="translate(0 0)"><rect width="0.391" height="20.503" transform="translate(0 0.274) rotate(-44.375)" fill="#99f0d0"/></g></g><path d="M738.808,571.887H683.321L668.6,556.839h55.487Zm-55.323-.391h54.392L723.921,557.23H669.528Z" transform="translate(-668.598 -556.839)" fill="#99f0d0"/></g><g transform="translate(40.43)"><path d="M828.762,557.525,815.426,543.9H789.265v-.522h26.381l13.49,13.787Z" transform="translate(-789.265 -543.373)" fill="#1c1c1c"/></g><g transform="translate(23.423)"><rect width="12.335" height="0.522" fill="#1c1c1c"/></g></g><g transform="translate(130.4 131.884)"><g transform="translate(0.007)"><path d="M817.043,625.422v2.2H749.628l-20.682-21.464V603.44Z" transform="translate(-728.946 -603.44)" fill="#0f05e2"/></g><path d="M817.13,625.422h-66.7L728.921,603.44h66.7Z" transform="translate(-728.921 -603.44)" fill="#080372"/><g transform="translate(8.95 3.467)"><g transform="translate(4.117 3.664)"><rect width="54.727" height="0.391" fill="#0f05e2"/></g><g transform="translate(7.669 7.328)"><rect width="54.919" height="0.391" fill="#0f05e2"/></g><g transform="translate(11.09 10.992)"><rect width="55.118" height="0.391" fill="#0f05e2"/></g><g transform="translate(49.042 0.059)"><g transform="translate(0 0)"><rect width="0.391" height="20.503" transform="translate(0 0.274) rotate(-44.375)" fill="#0f05e2"/></g></g><g transform="translate(42.977 0.059)"><g transform="translate(0 0)"><rect width="0.391" height="20.503" transform="translate(0 0.274) rotate(-44.375)" fill="#0f05e2"/></g></g><g transform="translate(36.914 0.059)"><g transform="translate(0 0)"><rect width="0.391" height="20.503" transform="translate(0 0.274) rotate(-44.375)" fill="#0f05e2"/></g></g><g transform="translate(30.851 0.059)"><g transform="translate(0 0)"><rect width="0.391" height="20.503" transform="translate(0 0.274) rotate(-44.375)" fill="#0f05e2"/></g></g><g transform="translate(24.786 0.059)"><g transform="translate(0 0)"><rect width="0.391" height="20.503" transform="translate(0 0.274) rotate(-44.375)" fill="#0f05e2"/></g></g><g transform="translate(18.723 0.059)"><g transform="translate(0 0)"><rect width="0.391" height="20.503" transform="translate(0 0.274) rotate(-44.375)" fill="#0f05e2"/></g></g><g transform="translate(12.66 0.059)"><g transform="translate(0 0)"><rect width="0.391" height="20.503" transform="translate(0 0.274) rotate(-44.375)" fill="#0f05e2"/></g></g><g transform="translate(6.595 0.059)"><g transform="translate(0 0)"><rect width="0.391" height="20.503" transform="translate(0 0.274) rotate(-44.375)" fill="#0f05e2"/></g></g><path d="M833.438,631.778H777.951l-14.723-15.047h55.487Zm-55.323-.391h54.393l-13.957-14.265H764.158Z" transform="translate(-763.228 -616.731)" fill="#0f05e2"/></g></g><g transform="translate(174.581 155.942)"><g transform="translate(0 0)"><rect width="14.587" height="1.749" transform="translate(14.587 1.749) rotate(180)" fill="#080372"/></g></g><g transform="translate(485.514 114.227)"><path d="M2097.414,550.37a7.3,7.3,0,1,1,7.305-7.3A7.313,7.313,0,0,1,2097.414,550.37Zm0-14.088a6.783,6.783,0,1,0,6.783,6.783A6.791,6.791,0,0,0,2097.414,536.282Z" transform="translate(-2090.109 -535.76)" fill="#02dc8c"/></g><g transform="translate(323.616 235.602)"><path d="M1476.841,1015.611a7.3,7.3,0,1,1,7.3-7.3A7.313,7.313,0,0,1,1476.841,1015.611Zm0-14.088a6.783,6.783,0,1,0,6.783,6.783A6.791,6.791,0,0,0,1476.841,1001.523Z" transform="translate(-1469.536 -1001.001)" fill="#02dc8c"/></g><g transform="translate(0 481.002)"><path d="M236.388,1956.256a7.3,7.3,0,1,1,7.3-7.3A7.313,7.313,0,0,1,236.388,1956.256Zm0-14.088a6.783,6.783,0,1,0,6.783,6.783A6.791,6.791,0,0,0,236.388,1942.168Z" transform="translate(-229.083 -1941.646)" fill="#02dc8c"/></g><g transform="translate(40.835 114.285)"><g transform="translate(0)"><g transform="translate(0)"><rect width="19.923" height="0.522" transform="translate(0 14.088) rotate(-45)" fill="#0f05e2"/></g></g><g transform="translate(0 0)"><g transform="translate(0)"><rect width="0.522" height="19.923" transform="translate(0 0.369) rotate(-45)" fill="#0f05e2"/></g></g></g><g transform="translate(421.489 606.843)"><g transform="translate(0)"><g transform="translate(0)"><rect width="19.923" height="0.522" transform="translate(0 14.088) rotate(-45)" fill="#0f05e2"/></g></g><g transform="translate(0 0)"><g transform="translate(0)"><rect width="0.522" height="19.923" transform="translate(0 0.369) rotate(-45)" fill="#0f05e2"/></g></g></g><g transform="translate(404.537 379.557)"><g transform="translate(0)"><g transform="translate(0)"><rect width="19.923" height="0.522" transform="translate(0 14.088) rotate(-45)" fill="#0f05e2"/></g></g><g transform="translate(0 0)"><rect width="0.522" height="19.923" transform="translate(0 0.369) rotate(-45)" fill="#0f05e2"/></g></g><g transform="translate(118.524 316.857)"><g transform="translate(0 0)"><rect width="19.923" height="0.522" transform="translate(0 14.088) rotate(-45)" fill="#0f05e2"/></g><g transform="translate(0 0)"><g transform="translate(0)"><rect width="0.522" height="19.923" transform="translate(0 0.369) rotate(-45)" fill="#0f05e2"/></g></g></g><g transform="translate(339.865 167.831)"><path d="M1539.981,745.156c-2.684-1.207-5.429-2.366-8.161-3.442l.191-.486c2.739,1.08,5.492,2.242,8.183,3.452Z" transform="translate(-1531.82 -741.228)" fill="#1c1c1c"/></g><g transform="translate(310.42 158.909)"><path d="M1444.242,714.853a188.162,188.162,0,0,0-25.287-7.315l.11-.51a188.628,188.628,0,0,1,25.357,7.335Z" transform="translate(-1418.955 -707.028)" fill="#1c1c1c"/></g><g transform="translate(231.297 154.695)"><path d="M1115.775,695.474l-.108-.51a191.334,191.334,0,0,1,70.694-1.5l-.086.515a190.811,190.811,0,0,0-70.5,1.5Z" transform="translate(-1115.667 -690.876)" fill="#1c1c1c"/></g><g transform="translate(190.633 160.123)"><path d="M960.021,724.4l-.221-.473a188.436,188.436,0,0,1,34.78-12.242l.124.507A187.906,187.906,0,0,0,960.021,724.4Z" transform="translate(-959.8 -711.684)" fill="#1c1c1c"/></g><g transform="translate(270.617 533.183)"><path d="M1266.384,2141.66" transform="translate(-1266.384 -2141.66)" fill="none" stroke="#1c1c1c" stroke-miterlimit="10" stroke-width="2"/></g><g transform="translate(285.213 548.107)"><g transform="translate(0 5.199)"><path d="M1334.947,2230.054c-3.551,5.58-9.942,15.116-9.942,15.116h-2.67l10.786-26.377h.357l3.54,5.771Z" transform="translate(-1322.335 -2218.793)" fill="#02dc8c"/></g><g transform="translate(8.714)"><circle cx="2.062" cy="2.062" r="2.062" fill="#99f0d0"/></g><g transform="translate(9.452 16.46)"><path d="M1358.565,2266.838l3.16-4.881,1.715,7.876,5.565,7.24h-2.792l-5.4-5.527Z" transform="translate(-1358.565 -2261.957)" fill="#006837"/></g><g transform="translate(0.539 5.199)"><path d="M1334.648,2218.793l-4.917,5.536-4.343-2.063-.986,1.7,5.573,3.11,1.764-1.164Z" transform="translate(-1324.402 -2218.793)" fill="#006837"/></g><g transform="translate(11.137 5.199)"><path d="M1365.024,2218.793h3.269l2.869,4.932-1.178,7.04-2.06-.4.645-5.8Z" transform="translate(-1365.024 -2218.793)" fill="#99f0d0"/></g></g></g></g></svg>